<svg xmlns="http://www.w3.org/2000/svg" viewBox="1158 -635 3276 1830" style="enable-background:new 1158 -635 3276 1830" xml:space="preserve"><linearGradient id="a" gradientUnits="userSpaceOnUse" x1="2225.3" y1="127.641" x2="2225.3" y2="1195" gradientTransform="matrix(1 0 0 -1 0 560)"><stop offset="0" style="stop-color:#fff;stop-opacity:0"/><stop offset="1" style="stop-color:#fff;stop-opacity:.6"/></linearGradient><path d="M1158 246.1c266.2 138.6 604.4 210.1 992 179.1 500.5-40.1 750.6-152.4 1142.6-446.9-131.7-193.4-223.8-365.9-322.2-613.3H1158v881.1z" style="opacity:.2;fill:url(#a);enable-background:new"/><linearGradient id="b" gradientUnits="userSpaceOnUse" x1="3863.3" y1="-279" x2="3863.3" y2="1072.109" gradientTransform="matrix(1 0 0 -1 0 560)"><stop offset="0" style="stop-color:#fff;stop-opacity:0"/><stop offset="1" style="stop-color:#fff;stop-opacity:.6"/></linearGradient><path d="M3562.2-232.4c-98.7 79.2-187.1 148.7-269.6 210.6 53.7 78.9 113.9 161.2 183.9 253.5C3637.2 443.7 4051 809.9 4434 839V-504.3c-272.2-35.3-592.5 48-871.8 271.9z" style="opacity:.2;fill:url(#b);enable-background:new"/><linearGradient id="c" gradientUnits="userSpaceOnUse" x1="2796" y1="-635" x2="2796" y2="581.7" gradientTransform="matrix(1 0 0 -1 0 560)"><stop offset="0" style="stop-color:#fff;stop-opacity:0"/><stop offset="1" style="stop-color:#fff;stop-opacity:.6"/></linearGradient><path d="M3476.5 231.8c-70-92.3-130.2-174.6-183.9-253.5-392 294.5-642.1 406.7-1142.6 446.9-387.7 31.1-725.8-40.4-992-179.1V1195h3276V839.1c-383-29.1-796.8-395.3-957.5-607.3z" style="opacity:.2;fill:url(#c);enable-background:new"/></svg>